<?xml version="1.0" encoding="UTF-8" standalone="no"?>
<!-- Created with Inkscape (http://www.inkscape.org/) -->

<svg
   width="27.953918mm"
   height="52.527817mm"
   viewBox="0 0 27.953918 52.527817"
   version="1.1"
   id="svg1"
   xml:space="preserve"
   inkscape:version="1.4.2 (ebf0e940d0, 2025-05-08)"
   sodipodi:docname="logo.svg"
   xmlns:inkscape="http://www.inkscape.org/namespaces/inkscape"
   xmlns:sodipodi="http://sodipodi.sourceforge.net/DTD/sodipodi-0.dtd"
   xmlns="http://www.w3.org/2000/svg"
   xmlns:svg="http://www.w3.org/2000/svg"><sodipodi:namedview
     id="namedview1"
     pagecolor="#ffffff"
     bordercolor="#000000"
     borderopacity="0.25"
     inkscape:showpageshadow="2"
     inkscape:pageopacity="0.0"
     inkscape:pagecheckerboard="true"
     inkscape:deskcolor="#d1d1d1"
     inkscape:document-units="mm"
     inkscape:zoom="2.7796031"
     inkscape:cx="44.250922"
     inkscape:cy="63.678157"
     inkscape:window-width="2560"
     inkscape:window-height="1080"
     inkscape:window-x="0"
     inkscape:window-y="0"
     inkscape:window-maximized="1"
     inkscape:current-layer="layer1" /><defs
     id="defs1" /><g
     inkscape:label="Layer 1"
     inkscape:groupmode="layer"
     id="layer1"
     transform="translate(-53.187699,-57.304553)"><path
       style="fill:#ff6600;stroke:none;stroke-width:0.132415"
       d="m 80.350368,104.50679 c -1.449175,-1.20765 -2.817838,-3.86446 -2.817838,-3.86446 0,0 -0.483056,1.12713 -1.046625,0.40254 -0.563568,-0.72458 -4.428028,-8.775544 -4.750066,-8.775544 -0.32204,0 -5.474655,1.127135 -5.474655,1.127135 l 0.724588,3.220382 -0.322038,2.576309 -1.610194,3.220388 -1.771212,1.77121 0.724587,-3.05937 -0.322037,-1.127132 -0.966116,2.173762 -0.805096,0.64408 0.161018,-4.428035 -1.529681,-2.576309 -3.542425,-1.28815 -1.449172,-1.690702 -1.288153,-0.563568 0.161019,-2.898348 -0.966116,-1.851722 4.911087,-8.131466 1.77121,-6.843318 c 0,0 1.71279,-1.783868 1.719904,-1.812333 0.0071,-0.02847 0.907307,-0.355805 0.882397,-0.359363 -0.02491,-0.0035 -1.448128,-0.387827 -1.408987,-0.412733 0.03914,-0.02491 1.067417,-0.636892 1.067417,-0.636892 l 1.309364,-0.152996 -0.640451,-0.740077 0.764981,-0.263295 1.665171,0.377153 c 0,0 0.846819,0.338016 0.885956,0.277529 0.03914,-0.06049 2.583149,-4.202064 2.583149,-4.202064 l 4.924349,-2.896257 4.476035,0.14588 -4.579221,3.654123 -1.675843,4.063299 1.665171,0.56929 6.703376,-3.956559 -0.398501,3.671914 -2.604497,1.423224 c 0,0 2.547569,-0.56929 2.576032,-0.455432 0.02847,0.113858 0.327342,2.718354 0.327342,2.718354 l -2.889143,1.594007 1.679403,3.088389 1.522849,2.049445 0.01423,9.492889 0.113858,12.197013 z"
       id="path2-1"
       sodipodi:nodetypes="ccssccccccccccccccccccssscccccscccccccccsccccccc" /><path
       style="fill:#ffffff;stroke:none;stroke-width:0.132415"
       d="m 68.61609,83.071105 c -5.240218,-0.17612 -5.663867,-9.1805 -0.100637,-9.218352 7.007728,-0.04768 6.201465,9.423395 0.100637,9.218352 z"
       id="path3-8"
       sodipodi:nodetypes="sss" /><path
       style="fill:#000000;stroke:none;stroke-width:0.132415"
       d="m 80.220431,109.7955 c -0.407012,-0.15354 -0.423845,-0.25877 -0.423845,-2.64976 v -2.22275 l -0.43504,-0.4695 c -0.413659,-0.44644 -0.977072,-1.15736 -1.528769,-1.92903 -0.303414,-0.42439 -0.326951,-0.30597 -0.04843,0.24366 0.111717,0.22046 0.184798,0.41916 0.162403,0.44155 -0.182956,0.18296 -1.608106,-1.27755 -2.196226,-2.25071 -0.406009,-0.67181 -1.017612,-1.915978 -1.017612,-2.070087 0,-0.04798 -0.02787,-0.08724 -0.06192,-0.08724 -0.03406,0 -0.04805,0.245574 -0.03109,0.545725 0.01695,0.300155 -0.0027,0.60562 -0.04364,0.678822 -0.06072,0.1085 -0.126472,0.0333 -0.355916,-0.407272 -0.154793,-0.297194 -0.372192,-0.794719 -0.48311,-1.10561 -0.797997,-2.236638 -1.633106,-3.966765 -2.189109,-4.535256 -0.488612,-0.499589 -0.861602,-0.663131 -1.59729,-0.700342 -0.875517,-0.04429 -2.452335,0.294006 -2.842319,0.609796 l -0.182867,0.148074 0.215438,0.859976 c 0.427681,1.707167 0.459845,2.673817 0.131671,3.95696 -0.243472,0.951968 -0.814307,2.111364 -1.257995,2.555054 -0.08727,0.0873 -0.271055,0.38222 -0.408414,0.65547 -0.58428,1.16225 -1.581349,2.32678 -2.51713,2.93991 -0.524386,0.34358 -0.833864,0.49556 -0.784948,0.38547 0.0145,-0.0327 0.231215,-0.46883 0.481555,-0.96927 0.425364,-0.85031 0.849633,-2.14799 0.850114,-2.60019 1.58e-4,-0.14814 -0.0668,-0.0867 -0.321954,0.2954 -0.533554,0.799 -1.416598,1.44816 -2.123715,1.56124 l -0.340195,0.0544 0.317821,-0.4664 c 0.52118,-0.76483 0.680991,-1.33559 0.673341,-2.40484 -0.0099,-1.379788 -0.308927,-2.500245 -0.96898,-3.630416 -0.317725,-0.544023 -0.939543,-1.181257 -1.369772,-1.403736 -0.124925,-0.0646 -0.572205,-0.189804 -0.993956,-0.278224 -1.340969,-0.281137 -2.198899,-0.854898 -2.641971,-1.766875 -0.124124,-0.255483 -0.236254,-0.37609 -0.377105,-0.405618 -0.785947,-0.164754 -1.496504,-0.782531 -1.704103,-1.481592 -0.139635,-0.470201 -0.153059,-1.277965 -0.03131,-1.884192 0.08166,-0.406638 0.07471,-0.451344 -0.113409,-0.728549 -0.490735,-0.723135 -0.613385,-1.808804 -0.302851,-2.680736 0.180423,-0.506603 0.669278,-1.296673 1.220757,-1.972958 2.038308,-2.499578 3.513932,-4.967245 4.119692,-6.889305 0.154389,-0.489869 0.406661,-1.549912 0.560605,-2.355646 0.15394,-0.805733 0.36962,-1.72877 0.479283,-2.051193 0.109665,-0.322423 0.199388,-0.644742 0.199388,-0.716266 0,-0.372813 1.053703,-1.715439 1.602176,-2.041492 0.119671,-0.07114 0.217581,-0.157272 0.217581,-0.191404 0,-0.03413 -0.229324,-0.06206 -0.50961,-0.06206 -0.280286,0 -0.533363,-0.03844 -0.5624,-0.08542 -0.02904,-0.04698 0.124552,-0.256348 0.341302,-0.465267 0.438673,-0.422825 1.067402,-0.70245 1.737445,-0.772722 0.473122,-0.04962 0.468439,-0.11789 -0.02398,-0.349349 -0.192397,-0.09044 -0.349812,-0.196637 -0.349812,-0.236 0,-0.143026 0.514254,-0.379296 0.944223,-0.433814 0.583933,-0.07404 1.532417,0.06981 2.091976,0.317269 l 0.45204,0.199913 0.210892,-0.491685 c 1.229925,-2.867529 3.323833,-5.07342 5.886383,-6.201196 2.046277,-0.900566 4.406907,-1.067047 6.35714,-0.448333 0.52863,0.167709 0.685952,0.315168 0.656578,0.615411 -0.02102,0.21477 -0.09781,0.280793 -0.69614,0.598451 -1.20777,0.641221 -2.064716,1.256865 -2.847484,2.045681 -1.085694,1.09408 -1.816836,2.206729 -2.377445,3.61798 -0.335921,0.845632 -0.309143,0.957309 0.293962,1.225959 l 0.488744,0.217708 0.513901,-0.49895 c 0.578216,-0.561391 1.546512,-1.227869 2.412064,-1.660225 0.545887,-0.27268 2.219156,-0.961029 2.742618,-1.128259 l 0.23736,-0.07583 0.03956,-4.323111 0.03956,-4.323111 0.176261,-0.176206 c 0.259718,-0.259635 0.699151,-0.240115 0.941669,0.04183 l 0.187546,0.218035 v 25.793861 c 0,17.429872 -0.02626,25.842902 -0.08093,25.945092 -0.145504,0.27188 -0.547337,0.41979 -0.84026,0.3093 z m -15.844165,-7.04974 c 0.466532,-0.68699 0.838697,-1.55201 1.117072,-2.59638 0.22367,-0.839115 0.243906,-1.020881 0.251364,-2.257629 0.0076,-1.258185 -0.102707,-2.204714 -0.32414,-2.781759 -0.02945,-0.07675 -0.01836,-0.112097 0.02647,-0.08439 0.04244,0.02624 0.224549,0.343603 0.404697,0.70528 0.380511,0.763932 0.652714,1.761329 0.652714,2.391635 0,0.711065 0.1386,0.507609 0.197624,-0.290106 0.0816,-1.102886 -0.117662,-2.277815 -0.584205,-3.444641 -0.184553,-0.461569 -0.211966,-0.814036 -0.08217,-1.056562 0.123507,-0.230775 1.086716,-0.66565 1.894316,-0.855252 0.384237,-0.09021 1.052546,-0.306011 1.485128,-0.479564 0.432582,-0.173552 0.826938,-0.315548 0.876345,-0.315548 0.136698,0 0.10765,0.117589 -0.06841,0.276916 -0.637508,0.576941 0.951558,-0.08719 1.862711,-0.77849 0.618675,-0.469401 0.697276,-0.393186 0.387131,0.37536 -0.0598,0.148206 -0.05651,0.148206 0.197564,0 0.49895,-0.291028 1.526817,-1.521637 1.833918,-2.195652 0.153235,-0.336313 0.228508,-0.245583 0.228508,0.275416 v 0.485389 l 0.16214,-0.206124 c 0.408324,-0.519097 0.899464,-1.94034 0.995941,-2.882014 0.02832,-0.276365 0.07694,-0.473778 0.108057,-0.438697 0.09455,0.106591 0.237141,1.167058 0.237141,1.763656 0,1.053557 -0.402918,2.436521 -0.932067,3.199216 -0.320471,0.461913 -0.412971,0.45203 -0.412971,-0.04412 v -0.419687 l -0.442265,0.670233 c -0.243245,0.368631 -0.530256,0.759249 -0.637808,0.868035 l -0.195545,0.197802 0.05618,-0.230316 c 0.05311,-0.217695 0.04762,-0.224194 -0.100231,-0.118679 -0.08603,0.0614 -0.305265,0.239933 -0.487192,0.396741 l -0.330778,0.285112 0.546257,1.059929 c 0.300441,0.582958 0.662915,1.371462 0.805498,1.752224 0.14258,0.380765 0.288725,0.6923 0.324761,0.6923 0.03604,0 0.06907,-0.25813 0.07341,-0.573617 0.0043,-0.315492 0.03342,-0.662633 0.06464,-0.771419 0.0555,-0.193442 0.05874,-0.191702 0.146936,0.07912 0.0496,0.152308 0.198181,0.686365 0.330172,1.186798 0.393665,1.492529 1.107891,3.129464 1.639771,3.758194 0.195187,0.23073 0.199382,0.23184 0.150179,0.0396 -0.157978,-0.617338 -0.292057,-1.468711 -0.329953,-2.09513 l -0.04317,-0.713623 0.263253,0.553837 c 0.802107,1.687484 1.650522,2.993316 2.621664,4.035116 l 0.442522,0.47472 0.0035,-11.32495 0.0035,-11.324944 -0.613179,-0.823385 c -0.33725,-0.452866 -0.968589,-1.36339 -1.402974,-2.023397 l -0.789798,-1.200013 -0.436796,0.04566 c -0.308676,0.03226 -0.525543,0.0086 -0.73935,-0.08076 -0.478344,-0.199864 -0.368329,-0.366779 0.407065,-0.617599 1.253743,-0.405552 2.29733,-1.060921 3.092756,-1.942248 l 0.482274,-0.534353 v -0.509162 -0.509162 l -0.233445,0.352434 c -0.409763,0.618633 -1.333254,1.434178 -2.031272,1.793843 -0.723352,0.372721 -1.748312,0.648663 -2.412465,0.649491 -0.82896,0.0012 -1.090786,-0.465763 -0.635181,-1.132427 0.124315,-0.181904 0.448431,-0.740179 0.72026,-1.240613 1.167241,-2.148871 1.667462,-2.645801 3.820684,-3.795546 l 0.771419,-0.411911 v -0.388547 c 0,-0.213701 -0.02916,-0.388547 -0.06476,-0.388547 -0.149003,0 -0.97027,0.273885 -1.596758,0.532506 -1.966833,0.811925 -3.231246,1.717699 -3.960668,2.837265 -0.187005,0.287026 -0.455455,0.865681 -0.596555,1.285901 -0.247518,0.737159 -0.259632,0.75598 -0.344352,0.534954 -0.178255,-0.465052 -0.187974,-1.089522 -0.02446,-1.571286 0.10989,-0.323757 0.12948,-0.475372 0.06779,-0.524676 -0.354301,-0.283207 -1.80402,-0.808632 -2.552871,-0.925243 -0.181437,-0.02825 -0.416261,-0.109585 -0.521832,-0.180737 -0.932128,-0.628228 -1.181338,-0.768807 -1.586349,-0.89486 -0.520241,-0.161918 -0.981905,-0.182508 -1.412229,-0.06298 -0.251259,0.06979 -0.313835,0.138274 -0.469498,0.513838 -0.09878,0.238325 -0.227638,0.433318 -0.286351,0.433318 -0.05871,0 -0.280432,-0.08801 -0.492709,-0.195578 -0.568664,-0.288164 -1.474413,-0.516501 -2.048825,-0.516501 h -0.504787 l 0.576914,0.41538 c 0.317301,0.228458 0.588802,0.452653 0.603332,0.49821 0.01761,0.05522 -0.220829,0.07202 -0.715296,0.05039 -0.773172,-0.03382 -1.351298,0.0514 -1.853047,0.273132 l -0.295585,0.130626 0.348664,0.06576 c 0.572043,0.107893 1.194172,0.30667 1.194172,0.381551 0,0.0385 -0.240326,0.162355 -0.534057,0.275244 -0.293734,0.112892 -0.707823,0.343078 -0.920201,0.511531 -0.554757,0.440019 -1.124922,1.321552 -0.656064,1.014344 0.233048,-0.1527 0.967563,-0.372919 1.234584,-0.370147 0.164024,0.0018 0.111974,0.0513 -0.26985,0.257138 -0.260191,0.140269 -0.708308,0.476367 -0.995816,0.746887 -0.476288,0.448143 -0.537507,0.54306 -0.688903,1.068116 -0.09139,0.316945 -0.274733,1.169176 -0.407431,1.893844 -0.37636,2.055362 -0.852066,3.418061 -1.760838,5.044107 -0.672684,1.203617 -1.195012,1.965887 -2.656606,3.876984 -0.612602,0.800999 -1.214471,1.655293 -1.337488,1.898436 -0.402981,0.796477 -0.308871,2.043948 0.160818,2.131704 0.08415,0.01574 0.400552,-0.14846 0.731722,-0.379681 1.240227,-0.865923 2.16728,-1.123414 2.595681,-0.720953 0.3691,0.346751 0.331472,0.843606 -0.09831,1.298221 -0.321451,0.340026 -0.736839,0.51992 -1.703172,0.737602 -0.984028,0.22167 -1.111693,0.274192 -1.273357,0.523859 -0.162287,0.250625 -0.236095,1.064022 -0.131723,1.451632 0.202468,0.751906 0.621621,1.010717 1.62979,1.006344 0.94524,-0.0039 2.374558,-0.38792 4.935156,-1.325252 0.446799,-0.163556 0.685495,-0.157752 1.091349,0.0265 0.364668,0.165577 0.535675,0.403681 0.460357,0.640995 -0.04461,0.14054 -0.09957,0.150799 -0.578003,0.107916 -0.556168,-0.04985 -0.859214,0.03402 -2.996287,0.829464 -0.356304,0.132615 -1.014975,0.333806 -1.46372,0.447093 -0.448742,0.113286 -0.842151,0.231514 -0.87424,0.262725 -0.09227,0.08976 0.392652,0.624823 0.762909,0.841809 0.185282,0.108586 0.73188,0.284793 1.214668,0.391572 1.014481,0.224386 1.836731,0.60471 2.36993,1.0962 0.700861,0.646032 1.245109,1.668286 1.450335,2.724134 0.144745,0.744708 0.06072,2.614998 -0.146238,3.255128 l -0.16295,0.50426 0.2257,-0.21624 c 0.45861,-0.43937 0.947055,-1.6262 1.063849,-2.58493 0.09698,-0.796084 -0.139216,-2.051505 -0.622858,-3.310591 l -0.197546,-0.514283 0.281417,0.316481 c 0.382879,0.430589 0.934274,1.59682 1.140937,2.413155 0.32231,1.273137 0.288468,3.180058 -0.07729,4.355258 -0.174186,0.55965 -0.112309,0.54133 0.31957,-0.0946 z m 2.324949,-18.96098 c -0.895056,-0.309505 -1.382926,-0.72055 -1.746088,-1.47114 l -0.195518,-0.4041 0.217889,0.27692 c 0.543605,0.69087 1.262727,1.254127 1.975161,1.547058 0.530152,0.217984 0.341765,0.256389 -0.251444,0.05126 z m 1.007083,-0.565684 c -2.231733,-0.606214 -3.680064,-2.525829 -3.674332,-4.869946 0.0054,-2.224485 1.706896,-4.286701 3.911085,-4.740359 0.757063,-0.155816 1.147089,-0.15758 1.925162,-0.0087 1.863085,0.356469 3.316237,1.73523 3.839651,3.643095 0.212262,0.773686 0.182217,1.848182 -0.07406,2.648805 -0.493696,1.542339 -1.791296,2.818887 -3.333602,3.279515 -0.708491,0.211599 -1.909044,0.233631 -2.593905,0.0476 z m 2.147325,-0.683868 c 0.789559,-0.204559 1.314304,-0.505501 1.918759,-1.100407 0.920914,-0.906365 1.378274,-2.113254 1.273668,-3.360987 -0.144724,-1.726292 -1.446047,-3.252549 -3.144106,-3.687571 -0.812483,-0.20815 -1.846396,-0.126881 -2.646893,0.208054 -0.532012,0.222596 -0.733418,0.365293 -1.273052,0.901954 -0.542212,0.539222 -0.679882,0.731884 -0.892852,1.249501 -0.893776,2.172281 -0.06384,4.483678 1.985274,5.529061 0.7511,0.38318 1.892504,0.490125 2.779202,0.260395 z m -1.186421,-1.879995 c -0.933898,-0.445623 -1.468068,-1.266909 -1.464982,-2.252416 0.0033,-1.06217 0.483606,-1.833211 1.421323,-2.281758 1.49897,-0.717022 3.209496,0.15673 3.501088,1.788384 0.08733,0.488682 0.08214,0.616723 -0.04388,1.082297 -0.170615,0.630302 -0.612584,1.217992 -1.179654,1.568583 -0.335348,0.207326 -0.465084,0.238122 -1.103636,0.261947 -0.637738,0.02379 -0.771871,0.0039 -1.130256,-0.167037 z m 2.874038,-2.992396 c 0.363241,-0.341244 0.129686,-0.935647 -0.367638,-0.935647 -0.273151,0 -0.556921,0.264209 -0.556921,0.518529 0,0.09472 0.07379,0.266023 0.163982,0.380683 0.202681,0.257664 0.50945,0.272357 0.760577,0.03643 z m 8.216891,-3.45119 c -0.02168,-0.02168 -0.19612,0.105006 -0.387631,0.281533 -0.191511,0.17653 -0.548279,0.453805 -0.792816,0.616169 -0.244539,0.162365 -0.444615,0.309738 -0.444615,0.327495 0,0.13186 1.180124,1.985384 1.494366,2.347081 0.118011,0.13583 0.129189,0.0087 0.148856,-1.692994 0.01169,-1.011919 0.0035,-1.857598 -0.01815,-1.879284 z m -7.946312,-5.984312 c 0.888902,-2.443926 2.669265,-4.527688 4.976211,-5.824221 0.326371,-0.183424 0.608236,-0.34671 0.626366,-0.362857 0.181518,-0.161656 -1.370597,-0.291104 -2.248323,-0.187512 -0.999159,0.117923 -2.814318,0.622423 -2.806109,0.779922 0.0015,0.02791 0.185701,0.157561 0.409436,0.288109 0.416049,0.242758 0.893884,0.753024 0.842764,0.899959 -0.01567,0.04503 -0.271668,-0.07481 -0.568892,-0.266329 -0.29722,-0.191515 -0.717754,-0.407115 -0.934519,-0.479113 l -0.394117,-0.130904 -0.450079,0.295471 c -0.247542,0.16251 -0.603601,0.419519 -0.791245,0.571133 l -0.34117,0.275662 0.508947,0.171276 c 0.559292,0.188219 0.98136,0.473295 1.24138,0.83846 0.212304,0.29815 0.109459,0.299807 -0.416449,0.0067 -0.510893,-0.28473 -1.166314,-0.481249 -1.605035,-0.481249 -0.313141,0 -0.356406,0.03005 -0.786212,0.54603 -0.250162,0.300316 -0.45952,0.576246 -0.465243,0.613179 -0.0057,0.03693 0.193177,0.08903 0.441995,0.115772 0.250284,0.0269 0.645337,0.146239 0.884252,0.267117 0.414565,0.209752 0.988752,0.708263 0.908369,0.788648 -0.02126,0.02125 -0.332866,-0.08856 -0.692474,-0.244038 -0.499531,-0.215968 -0.801287,-0.292786 -1.278632,-0.325504 -0.618845,-0.04241 -0.626892,-0.04052 -0.844955,0.199187 -0.121086,0.133106 -0.318058,0.422946 -0.437714,0.644088 l -0.217557,0.402076 h 0.324815 c 0.661979,0 1.5306,0.316609 2.439543,0.889202 0.328696,0.207067 0.910608,0.375613 1.220116,0.353399 0.206969,-0.01485 0.24584,-0.0699 0.454531,-0.643674 z"
       id="path1-7"
       sodipodi:nodetypes="cscsssssssssscssscsssssssssscssssssssssscsssssssssssssscssscsssscssscccsscsccccsssssssssssssssssscsssssscsscssscsssssssssscsscccsscscsscccsscssscsssssssssssssssscsssscssssssssssssssssssssssssssssssssscssscsssccsscssssssssssssssssssssssssssssssssssssssssssssscsssscsscssssscssssssscssssscs" /></g></svg>
